<svg width="36" height="44" viewBox="0 0 36 44" fill="none" xmlns="http://www.w3.org/2000/svg">
<g clip-path="url(#clip0)">
<path d="M21.128 16.1461C20.2847 15.6996 19.3546 15.464 18.3253 15.464H13.2532V28.3738H18.3253C19.3546 28.3738 20.2847 28.1506 21.128 27.6917C21.9713 27.2453 22.641 26.588 23.1371 25.7199C23.6331 24.8518 23.8811 23.8349 23.8811 22.6568V21.1934C23.8811 20.0153 23.6331 18.9984 23.1371 18.1303C22.641 17.2498 21.9713 16.5925 21.128 16.1461ZM20.942 23.066C20.942 24.0209 20.7064 24.7526 20.2103 25.2735C19.7267 25.7943 19.0942 26.0548 18.3253 26.0548H16.0683V17.783H18.3253C19.0942 17.783 19.7267 18.0435 20.2103 18.5643C20.694 19.0852 20.942 19.8169 20.942 20.7718V23.066Z" fill="black"/>
<path d="M7.96717 24.2447L3.32907 15.4645H0.724784H0.464355V28.3743H3.01903L2.89502 19.5941L7.54553 28.3743H10.1498H10.4102V15.4645H7.84316L7.96717 24.2447Z" fill="black"/>
<path d="M26.6342 27.5806C27.5643 28.2378 28.7424 28.5727 30.1686 28.5727C31.7311 28.5727 32.9713 28.2254 33.8642 27.5434C34.7571 26.8613 35.2035 25.7824 35.2035 24.319C35.2035 23.4757 34.9927 22.806 34.5834 22.31C34.1742 21.8139 33.6781 21.4419 33.1077 21.2063C32.5372 20.9706 31.7931 20.735 30.9126 20.5118C30.305 20.363 29.8337 20.2266 29.4741 20.1025C29.1268 19.9785 28.8416 19.8173 28.606 19.6065C28.3828 19.3957 28.2711 19.1352 28.2711 18.8252C28.2711 18.4656 28.4572 18.1679 28.8168 17.9447C29.1764 17.7215 29.6849 17.6099 30.3422 17.6099C30.9746 17.6099 31.4583 17.7463 31.8179 18.0191C32.1776 18.2919 32.3512 18.664 32.3512 19.1352V19.3089H34.9431V19.0856C34.9431 17.8331 34.509 16.8906 33.6409 16.2581C32.7728 15.6257 31.6567 15.3032 30.2926 15.3032C29.3997 15.3032 28.5936 15.4396 27.8743 15.7249C27.155 16.0101 26.5846 16.4317 26.1505 17.0146C25.7289 17.5975 25.5056 18.2919 25.5056 19.1228C25.5056 20.0157 25.7165 20.7226 26.1257 21.2435C26.5474 21.7767 27.031 22.1488 27.6015 22.3968C28.1719 22.6324 28.9036 22.868 29.8089 23.1161C30.4166 23.2649 30.8878 23.4013 31.2227 23.5253C31.5575 23.6493 31.8427 23.8106 32.0536 24.009C32.2768 24.2198 32.3884 24.4802 32.3884 24.8027C32.3884 25.2243 32.2024 25.5839 31.8427 25.8568C31.4831 26.1296 30.8878 26.266 30.0569 26.266C29.3501 26.266 28.792 26.1048 28.3952 25.7824C27.9983 25.4599 27.8123 25.0259 27.8123 24.4802L27.8247 24.1826H25.2204L25.208 24.5918C25.2328 25.9188 25.7041 26.9109 26.6342 27.5806Z" fill="black"/>
<path d="M20.7814 31.4382C19.9382 30.9793 18.9833 30.7561 17.9539 30.7561C16.9246 30.7561 15.9697 30.9917 15.114 31.4382C14.2707 31.897 13.5887 32.5667 13.0802 33.4348C12.5842 34.3029 12.3237 35.3446 12.3237 36.5351V38.3209C12.3237 39.5115 12.5718 40.5532 13.0802 41.4213C13.5763 42.2894 14.2583 42.9715 15.114 43.4179C15.8705 43.8272 16.751 44.0132 17.9539 44.0132C19.1569 44.0132 20.025 43.8272 20.7814 43.4179C21.6247 42.9591 22.3068 42.2894 22.8153 41.4213C23.3113 40.5532 23.5717 39.5115 23.5717 38.3209V36.5351C23.5717 35.3446 23.3237 34.3029 22.8153 33.4348C22.3068 32.5543 21.6247 31.8846 20.7814 31.4382ZM20.6202 36.1011V38.7426C20.6202 39.6851 20.3722 40.4168 19.8761 40.9376C19.3801 41.4461 18.7352 41.7065 17.9415 41.7065C17.1479 41.7065 16.503 41.4461 16.0069 40.9376C15.5109 40.4292 15.2628 39.6851 15.2628 38.7426V36.1011C15.2628 35.1586 15.5109 34.4269 16.0069 33.9061C16.503 33.3976 17.1479 33.1372 17.9415 33.1372C18.7352 33.1372 19.3801 33.3976 19.8761 33.9061C20.3722 34.4269 20.6202 35.1586 20.6202 36.1011Z" fill="black"/>
<path d="M34.7175 36.8444C35.0523 36.2368 35.2136 35.5795 35.2136 34.8602V34.7486C35.2136 34.0169 35.0399 33.3596 34.7051 32.7768C34.3703 32.1815 33.9114 31.7227 33.3285 31.4002C32.7581 31.0654 32.1256 30.9042 31.4559 30.9042H25.7761V43.814H28.5664V38.8163H31.4559C32.1504 38.8163 32.7829 38.6426 33.3534 38.2954C33.9238 37.9358 34.3827 37.4521 34.7175 36.8444ZM32.3984 34.9346C32.3984 35.3563 32.2496 35.7407 31.9396 36.0507C31.642 36.3732 31.2575 36.5344 30.7987 36.5344H28.5664V33.1984H30.7987C31.2699 33.1984 31.6544 33.3596 31.952 33.6821C32.2496 34.0045 32.3984 34.3766 32.3984 34.823V34.9346Z" fill="black"/>
<path d="M7.37191 36.0135H3.19265V30.8917H0.464355V43.8015H3.20505V38.4193H7.37191V43.8015H10.1002V30.8917H7.37191V36.0135Z" fill="black"/>
<path d="M8.33921 6.16347C9.77777 5.75423 10.4226 4.77452 10.4226 3.41037V3.33596C10.4226 1.12852 8.98409 0 6.16898 0H0.464355V12.8478H6.4046C9.40573 12.8478 10.9063 11.6201 10.9063 9.25141V9.177C10.9063 7.45321 10.0134 6.49831 8.33921 6.16347ZM3.30427 1.99662H5.68533C7.04947 1.99662 7.65714 2.48027 7.65714 3.55919V3.6336C7.65714 4.78692 7.12388 5.28298 5.69773 5.28298H3.30427V1.99662ZM8.02918 9.01578C8.02918 10.1815 7.38431 10.8264 5.94575 10.8264H3.30427V7.15558H5.80934C7.38431 7.15558 8.02918 7.75085 8.02918 8.95378V9.01578Z" fill="black"/>
<path d="M16.1427 7.88726H17.6929H17.7053L20.2971 12.8478H23.2859L20.4336 7.39121H20.4584C21.19 7.18038 21.8597 6.79594 22.3434 6.23788C22.827 5.67982 23.0998 4.96054 23.0998 3.96843V3.89403C23.0998 2.57948 22.6162 1.59977 21.7481 0.942503C20.8924 0.310034 19.6523 0 18.1393 0H13.2532V12.8478H16.1427V7.88726ZM16.1427 2.23224H18.0649C19.4787 2.23224 20.3715 2.67869 20.3715 3.99324V4.06764C20.3715 5.29538 19.5159 5.91545 18.0649 5.91545H16.1427V2.23224Z" fill="black"/>
<path d="M25.4903 7.05648V9.51194H30.4137L32.2119 12.8479H35.1882L28.3054 0.0869141H25.3291L29.0867 7.05648H25.4903Z" fill="black"/>
<path d="M34.2952 42.1645C34.3696 42.1025 34.4068 42.0033 34.4068 41.8669C34.4068 41.7057 34.3572 41.5941 34.2704 41.5321C34.1836 41.4701 34.0348 41.4329 33.8487 41.4329H33.2659V42.9582H33.5139V42.301H33.7495L34.1464 42.9582H34.4316L34.01 42.2886C34.1216 42.2637 34.2084 42.2265 34.2952 42.1645ZM33.7991 42.0777H33.5139V41.6313H33.8115C33.8487 41.6313 33.8859 41.6313 33.9231 41.6313C33.9603 41.6313 33.9976 41.6437 34.0348 41.6561C34.072 41.6685 34.0968 41.6933 34.1092 41.7181C34.134 41.7429 34.1464 41.7801 34.1464 41.8297C34.1464 41.8917 34.134 41.9289 34.1216 41.9661C34.0968 41.9909 34.072 42.0157 34.0472 42.0405C34.01 42.0529 33.9728 42.0653 33.9355 42.0777C33.8859 42.0777 33.8487 42.0777 33.7991 42.0777Z" fill="black"/>
<path d="M33.7874 40.3914C32.8201 40.3914 32.0388 41.185 32.0388 42.1523C32.0388 43.1197 32.8201 43.9133 33.7874 43.9133C34.7547 43.9133 35.536 43.1197 35.536 42.1523C35.536 41.1726 34.7547 40.3914 33.7874 40.3914ZM33.7874 43.7769C32.8945 43.7769 32.1628 43.0452 32.1628 42.1399C32.1628 41.2346 32.8945 40.503 33.7874 40.503C34.6803 40.503 35.412 41.2346 35.412 42.1399C35.412 43.0452 34.6927 43.7769 33.7874 43.7769Z" fill="black"/>
</g>
<defs>
<clipPath id="clip0">
<rect width="35.071" height="44" fill="white" transform="translate(0.464355)"/>
</clipPath>
</defs>
</svg>
